<?xml version="1.0" encoding="UTF-8"?>
<svg width="639px" height="639px" viewBox="0 0 639 639" version="1.1" xmlns="http://www.w3.org/2000/svg" xmlns:xlink="http://www.w3.org/1999/xlink">
    <title>Globe</title>
    <g id="Page-1" stroke="none" stroke-width="1" fill="none" fill-rule="evenodd">
        <g id="HOME" transform="translate(-401.000000, -193.000000)" stroke="#979797" stroke-width="12">
            <g id="Globe" transform="translate(401.000000, 193.000000)">
                <circle id="Oval" cx="319.5" cy="319.5" r="313.5"></circle>
                <ellipse id="Oval" cx="319.5" cy="319.5" rx="279" ry="313.5"></ellipse>
                <ellipse id="Oval" cx="319.5" cy="319.5" rx="209" ry="313.5"></ellipse>
                <ellipse id="Oval" cx="320" cy="319.5" rx="96" ry="313.5"></ellipse>
                <line x1="626" y1="321" x2="7" y2="319" id="Line" stroke-linecap="square"></line>
                <line x1="627.498831" y1="319.011813" x2="10.4995958" y2="319.983466" id="Line" stroke-linecap="square" transform="translate(319.000789, 319.498426) rotate(-89.909771) translate(-319.000789, -319.498426) "></line>
                <path d="M600.645495,441.530205 C525.169621,410.863538 429.672572,395.530205 314.154348,395.530205 C198.636124,395.530205 106.702843,410.863538 38.3545045,441.530205" id="Line" stroke-linecap="square"></path>
                <path d="M600.645495,242.530205 C525.169621,211.863538 429.672572,196.530205 314.154348,196.530205 C198.636124,196.530205 106.702843,211.863538 38.3545045,242.530205" id="Line-Copy" stroke-linecap="square" transform="translate(319.500000, 219.530205) scale(1, -1) translate(-319.500000, -219.530205) "></path>
                <path d="M513.5,562.530205 C461.419068,531.863538 395.52284,516.530205 315.811317,516.530205 C236.099795,516.530205 172.662689,531.863538 125.5,562.530205" id="Line" stroke-linecap="square"></path>
                <path d="M513.5,121.530205 C461.419068,90.863538 395.52284,75.5302046 315.811317,75.5302046 C236.099795,75.5302046 172.662689,90.863538 125.5,121.530205" id="Line-Copy-2" stroke-linecap="square" transform="translate(319.500000, 98.530205) scale(1, -1) translate(-319.500000, -98.530205) "></path>
            </g>
        </g>
    </g>
</svg>